<?xml version="1.0" encoding="utf-8"?>
<!-- Generator: Adobe Illustrator 23.0.6, SVG Export Plug-In . SVG Version: 6.00 Build 0)  -->
<svg version="1.1" id="Warstwa_1" xmlns="http://www.w3.org/2000/svg" xmlns:xlink="http://www.w3.org/1999/xlink" x="0px" y="0px"
	 viewBox="0 0 86.8 60.2" style="enable-background:new 0 0 86.8 60.2;" xml:space="preserve">
<style type="text/css">
	.st0{fill:url(#SVGID_1_);}
	.st1{fill:url(#SVGID_2_);}
	.st2{fill:url(#SVGID_3_);}
	.st3{fill:url(#SVGID_4_);}
</style>
<linearGradient id="SVGID_1_" gradientUnits="userSpaceOnUse" x1="0" y1="30.115" x2="84.999" y2="30.115">
	<stop  offset="0" style="stop-color:#7A53A1"/>
	<stop  offset="1" style="stop-color:#F06052"/>
</linearGradient>
<path class="st0" d="M79.8,0H5.2C2.3,0,0,2.3,0,5.2V55c0,2.9,2.3,5.2,5.2,5.2h74.7c2.9,0,5.2-2.3,5.2-5.2V5.2C85,2.3,82.7,0,79.8,0z
	 M76.6,2.9c2.2,0,4,1.8,4,4c0,2.2-1.8,4-4,4c-2.2,0-4-1.8-4-4C72.6,4.7,74.4,2.9,76.6,2.9z M4.7,4c0.6-1,1.9-1.4,2.9-0.7l6,3.6
	c1,0.6,1.3,1.9,0.7,3c-0.6,1-1.9,1.4-2.9,0.7L5.5,7C4.5,6.3,4.1,5,4.7,4z M81.6,52.3H3.4V13.2h78.1L81.6,52.3L81.6,52.3z"/>
<g>
	<linearGradient id="SVGID_2_" gradientUnits="userSpaceOnUse" x1="36.204" y1="32.4042" x2="53.0165" y2="32.4042">
		<stop  offset="0" style="stop-color:#7A53A1"/>
		<stop  offset="1" style="stop-color:#F06052"/>
	</linearGradient>
	<path class="st1" d="M36.2,25.3v7.1v7.1c0,1.8,1.6,2.4,3.7,1.3l11.6-6.4c2-1.1,2-2.9,0-4.1L39.9,24C37.9,22.9,36.2,23.5,36.2,25.3z
		"/>
	<linearGradient id="SVGID_3_" gradientUnits="userSpaceOnUse" x1="26.298" y1="32.405" x2="58.7" y2="32.405">
		<stop  offset="0" style="stop-color:#7A53A1"/>
		<stop  offset="1" style="stop-color:#F06052"/>
	</linearGradient>
	<path class="st2" d="M42.5,48.6c-8.9,0-16.2-7.3-16.2-16.2s7.3-16.2,16.2-16.2c8.9,0,16.2,7.3,16.2,16.2
		C58.7,41.3,51.4,48.6,42.5,48.6z M42.5,20c-6.9,0-12.4,5.6-12.4,12.4c0,6.9,5.6,12.4,12.4,12.4c6.9,0,12.4-5.6,12.4-12.4
		C54.9,25.5,49.4,20,42.5,20z"/>
</g>
<g>
	<linearGradient id="SVGID_4_" gradientUnits="userSpaceOnUse" x1="-75.1794" y1="41.3741" x2="-51.8718" y2="41.3741">
		<stop  offset="0" style="stop-color:#7A53A1"/>
		<stop  offset="1" style="stop-color:#F06052"/>
	</linearGradient>
	<path class="st3" d="M-63.9,35.8L-63.9,35.8c0.2,0.1,0.5,0.1,0.8,0l4.6-3.1c0.2-0.1,0.3-0.4,0.3-0.6c0-0.2-0.1-0.5-0.3-0.6
		l-4.6-3.1c-0.2-0.2-0.5-0.2-0.8,0c-0.2,0.1-0.4,0.4-0.4,0.6v2.4c-6.1,0.3-10.8,5.5-10.8,11.6c0,6.4,5.3,11.7,11.7,11.7
		s11.7-5.3,11.7-11.7c0-3.1-1.2-6.1-3.4-8.3c-0.3-0.3-0.8-0.3-1,0c-0.3,0.3-0.3,0.8,0,1c2,2,3,4.4,3,7.2c0,5.6-4.5,10.1-10.1,10.1
		s-10.1-4.5-10.1-10.1c0-5.4,4.1-9.7,9.4-10.1v2.4C-64.2,35.5-64.1,35.7-63.9,35.8z M-62.8,33.7v-3.4l2.5,1.7L-62.8,33.7z"/>
</g>
</svg>
