<?xml version="1.0" encoding="utf-8"?>
<!-- Generator: Adobe Illustrator 23.0.6, SVG Export Plug-In . SVG Version: 6.00 Build 0)  -->
<svg version="1.1" id="Warstwa_1" xmlns="http://www.w3.org/2000/svg" xmlns:xlink="http://www.w3.org/1999/xlink" x="0px" y="0px"
	 viewBox="0 0 100 60.5" style="enable-background:new 0 0 100 60.5;" xml:space="preserve">
<style type="text/css">
	.st0{fill:url(#SVGID_1_);}
	.st1{fill:url(#SVGID_2_);}
	.st2{fill:url(#SVGID_3_);}
	.st3{fill:url(#SVGID_4_);}
	.st4{fill:url(#SVGID_5_);}
	.st5{fill:url(#SVGID_6_);}
	.st6{fill:url(#SVGID_7_);}
</style>
<g>
	<g>
		<linearGradient id="SVGID_1_" gradientUnits="userSpaceOnUse" x1="37.0978" y1="18.02" x2="99.9704" y2="18.02">
			<stop  offset="0" style="stop-color:#7A53A1"/>
			<stop  offset="1" style="stop-color:#F06052"/>
		</linearGradient>
		<path class="st0" d="M99.7,19.9c-1.9-4-3.9-8.1-5.8-12.1c-1-2.1-2-4.3-2.9-6.4c-0.6-1.4-1.7-1.7-2.9-0.9
			c-2.5,1.7-9.9,6.8-14.1,6.8c-2.3,0-4.4-0.3-6.6-0.9C65.9,6,64.6,5.6,63.2,5c-2.1-0.8-4.2-1.7-6.1-1.8c-1.4,0-2.4,0.1-3.2,0.8
			l-0.2,0.2L52,5.8c0,0,0,0,0,0l-6.6,6c-0.1,0.1-0.2,0.2-0.4,0.4c-0.1,0.1-0.3,0.2-0.4,0.3l-6.6,6c-0.1,0.1-0.2,0.2-0.3,0.3
			c-0.1,0.1-0.1,0.1-0.2,0.2c-0.2,0.2-0.3,0.5-0.4,0.8c-0.4,2,1.7,4.8,3.7,5.2c2.6,0.5,5,0,7.1-1.5c1.3-0.9,2.7-2,4.2-3.1
			c0.4-0.3,0.8-0.6,1.2-0.9c0,0,0.1,0,0.1-0.1c0.4-0.3,0.8-0.6,1.1-0.9c0,0,0,0,0,0c1.1-0.7,2.4-1.1,3.8-1.1c0.6,0,1.3,0.1,1.9,0.2
			c1,0.3,1.9,0.7,2.7,1.4c0,0,0,0,0.1,0.1c0.1,0.1,0.3,0.2,0.4,0.3c0,0,0.1,0.1,0.1,0.1c0.3,0.3,0.6,0.5,0.9,0.8
			c0.9,0.8,1.7,1.7,2.5,2.5l3,3c0.1,0.1,0.2,0.3,0.4,0.4c0.1,0.1,0.3,0.2,0.4,0.4l6.3,6.3c0,0,0,0,0,0l2.7,2.7
			c0.8,0.4,1.7,0.3,2.5-0.4c1.3-1.1,3.4-2.8,4.8-3.8c2-1.6,10.1-7.3,12.1-8.9C100,21.9,100.2,21,99.7,19.9z"/>
		<linearGradient id="SVGID_2_" gradientUnits="userSpaceOnUse" x1="15.606" y1="35.5613" x2="29.134" y2="35.5613">
			<stop  offset="0" style="stop-color:#7A53A1"/>
			<stop  offset="1" style="stop-color:#F06052"/>
		</linearGradient>
		<path class="st1" d="M28.1,29.9c-1.4-1.4-3.7-1.4-5.1,0l-6.3,6.3c-1.4,1.4-1.4,3.7,0,5.1c1.4,1.4,3.7,1.4,5.1,0l6.3-6.3
			C29.5,33.5,29.5,31.3,28.1,29.9z"/>
		<linearGradient id="SVGID_3_" gradientUnits="userSpaceOnUse" x1="23.1168" y1="41.2535" x2="36.6451" y2="41.2535">
			<stop  offset="0" style="stop-color:#7A53A1"/>
			<stop  offset="1" style="stop-color:#F06052"/>
		</linearGradient>
		<path class="st2" d="M35.6,35.5c-1.4-1.4-3.7-1.4-5.1,0l-6.3,6.3c-1.4,1.4-1.4,3.7,0,5.1c1.4,1.4,3.7,1.4,5.1,0l6.3-6.3
			C37,39.2,37,37,35.6,35.5z"/>
		<linearGradient id="SVGID_4_" gradientUnits="userSpaceOnUse" x1="30.9821" y1="45.9078" x2="44.5093" y2="45.9078">
			<stop  offset="0" style="stop-color:#7A53A1"/>
			<stop  offset="1" style="stop-color:#F06052"/>
		</linearGradient>
		<path class="st3" d="M43.5,40.2c-1.4-1.4-3.7-1.4-5.1,0L32,46.5c-1.4,1.4-1.4,3.7,0,5.1c1.4,1.4,3.7,1.4,5.1,0l6.3-6.3
			C44.9,43.9,44.9,41.6,43.5,40.2z"/>
		<linearGradient id="SVGID_5_" gradientUnits="userSpaceOnUse" x1="38.6765" y1="51.3938" x2="52.2046" y2="51.3938">
			<stop  offset="0" style="stop-color:#7A53A1"/>
			<stop  offset="1" style="stop-color:#F06052"/>
		</linearGradient>
		<path class="st4" d="M51.6,50.3c0.8-1.1,0.9-2.5,0.3-3.6c-0.2-0.4-0.4-0.7-0.7-1c-0.3-0.3-0.6-0.5-1-0.7c-1.1-0.5-2.4-0.5-3.4,0.2
			c-0.2,0.1-0.5,0.3-0.7,0.5L39.7,52c-1.4,1.4-1.4,3.7,0,5.1s3.7,1.4,5.1,0l6.3-6.3C51.3,50.6,51.4,50.5,51.6,50.3z"/>
		<linearGradient id="SVGID_6_" gradientUnits="userSpaceOnUse" x1="3.082422e-02" y1="29.0829" x2="77.7057" y2="29.0829">
			<stop  offset="0" style="stop-color:#7A53A1"/>
			<stop  offset="1" style="stop-color:#F06052"/>
		</linearGradient>
		<path class="st5" d="M69.9,29.4c-0.1-0.1-0.2-0.2-0.2-0.2l-1.3-1.3l-0.2-0.2l-2-2.1l-1.2-1.2l-1.7-1.8l-0.1-0.1L62.5,22l-0.7-0.7
			c-0.3-0.3-0.6-0.6-1-0.8c-0.4-0.3-0.9-0.5-1.4-0.6c-0.3-0.1-0.7-0.1-1.1-0.1c-0.9,0-1.7,0.2-2.5,0.7c-0.2,0.1-0.3,0.2-0.5,0.3
			c-0.2,0.1-0.3,0.3-0.5,0.4c0,0-0.1,0-0.1,0.1c-0.4,0.4-0.9,0.8-1.4,1.1c-0.5,0.4-0.9,0.7-1.4,1.1c-0.3,0.2-0.6,0.4-0.8,0.6v0
			c-1.3,0.9-2.7,1.7-4.1,2.5c-4.7,2.3-9.4,1.2-12.1-3.6c-0.1-0.2-0.2-0.4-0.3-0.6c-0.1-0.3-0.2-0.5-0.2-0.8
			c-0.2-1.5,0.3-3.1,1.4-4.1c3-2.8,6-5.6,9-8.5c1.1-1,2.2-2.1,3.4-3.2c0.3-0.3,0.6-0.5,0.9-0.8c-0.9-0.7-1.8-0.9-2.8-0.9
			c-0.1,0-0.2,0-0.3,0C42.2,4,38.7,4.8,35.2,5.7c-0.2,0-0.3,0.1-0.4,0.1c-0.1,0-0.2,0-0.2,0.1C34,6,33.6,6.2,33.1,6.3
			c-0.2,0-0.3,0.1-0.5,0.1c-1,0.3-2,0.6-3,0.7c-1.5,0.2-2.8,0.2-3.6,0.2c-1.7-0.1-3.8-0.8-6-1.9c-3.3-1.6-6.6-3.9-8.1-4.9
			c-0.6-0.4-1.1-0.5-1.6-0.4C9.8,0.2,9.4,0.6,9,1.3c-1,2.1-1.9,4.3-2.9,6.4c-1.9,4-3.9,8.1-5.8,12.1C-0.2,21,0,21.9,1,22.6
			c2.1,1.6,10.1,7.3,12.1,8.9c0.3,0.2,0.6,0.5,1,0.8c0,0,0.1,0.1,0.1,0.1c0.7,0.5,1.2,0.9,1.7,1.3l5.4-5.4c1.1-1.1,2.6-1.7,4.1-1.7
			c1.2,0,2.3,0.3,3.2,1c0.3,0.2,0.6,0.5,0.9,0.8c0.1,0.1,0.3,0.3,0.4,0.4c0.1,0.1,0.2,0.2,0.2,0.3c0.1,0.1,0.2,0.2,0.2,0.3
			c0.1,0.1,0.2,0.3,0.2,0.4c0,0,0,0.1,0.1,0.1c0,0.1,0.1,0.2,0.1,0.3c0,0.1,0.1,0.2,0.1,0.3c0,0.1,0.1,0.2,0.1,0.3
			c0.1,0.2,0.1,0.3,0.1,0.4c0,0.1,0.1,0.2,0.1,0.4c0,0.2,0,0.3,0.1,0.5c0,0.2,0,0.4,0,0.6c0,0,0.1,0,0.1,0c0.2,0,0.3-0.1,0.4-0.1
			c0.1,0,0.3-0.1,0.4-0.1c0.1,0,0.2,0,0.3,0c0.2,0,0.3,0,0.4,0c0.2,0,0.4,0,0.5,0c0,0,0.1,0,0.1,0c0.3,0,0.7,0.1,1,0.2
			c0.5,0.1,0.9,0.3,1.3,0.6c0,0,0,0,0,0c0.1,0.1,0.2,0.1,0.3,0.2c0.1,0.1,0.2,0.1,0.3,0.2c0.1,0.1,0.2,0.1,0.2,0.2
			c0.1,0.1,0.2,0.2,0.3,0.3c0.1,0.1,0.2,0.3,0.4,0.4c0,0.1,0.1,0.1,0.1,0.2c0.1,0.1,0.2,0.2,0.3,0.3c0.1,0.1,0.2,0.3,0.3,0.4
			c0.2,0.3,0.3,0.7,0.4,1.1c0,0.2,0.1,0.3,0.1,0.4c0,0.2,0.1,0.3,0.1,0.5c0.7-0.3,1.4-0.4,2.1-0.4c1.6,0,3,0.6,4.1,1.7
			c0.7,0.7,1.2,1.5,1.4,2.4c0.1,0.4,0.2,0.8,0.2,1.2c0,0.2,0,0.3,0,0.5c0.2-0.1,0.5-0.2,0.8-0.2c0.2,0,0.3,0,0.5-0.1h0.1
			c0.2,0,0.4,0,0.5,0c0.1,0,0.2,0,0.4,0c1.4,0.1,2.8,0.7,3.8,1.7c1.1,1.1,1.7,2.6,1.7,4.1c0,0.2,0,0.4,0,0.5c0,0,0,0,0,0
			c0,0.1,0,0.3,0,0.4c0,0,0,0,0,0.1c0,0.2-0.1,0.4-0.2,0.7c0,0.1-0.1,0.3-0.1,0.4c0,0,0,0,0,0c0,0.1,0,0.1-0.1,0.2
			c0,0.1-0.1,0.2-0.1,0.3c0,0.1-0.1,0.1-0.1,0.2c-0.1,0.3-0.3,0.5-0.5,0.8c0,0-0.1,0.1-0.1,0.1c0,0.1-0.1,0.1-0.1,0.2
			c-0.1,0.1-0.2,0.2-0.3,0.3l-5.2,5.2c0.7,0.4,1.5,0.6,2.4,0.6c1.1,0,2.2-0.4,3.1-1.1c0,0,0,0,0.1,0c0.1-0.1,0.2-0.2,0.3-0.3
			c0.5-0.5,0.9-1.1,1.1-1.7c0.2-0.5,0.3-1.1,0.3-1.6c0.7,0.4,1.6,0.6,2.4,0.6c1.3,0,2.6-0.5,3.5-1.5c1.2-1.2,1.6-2.8,1.4-4.3
			c0.9,0.8,2,1.2,3.2,1.2c1.3,0,2.6-0.5,3.5-1.5c1.2-1.2,1.7-2.9,1.3-4.5c0.8,0.5,1.6,0.7,2.5,0.7c1.3,0,2.6-0.5,3.5-1.5
			c1.9-1.9,1.9-5.1,0-7L69.9,29.4z"/>
	</g>
</g>
<linearGradient id="SVGID_7_" gradientUnits="userSpaceOnUse" x1="-329.766" y1="-57.4457" x2="-93.8511" y2="-57.4457">
	<stop  offset="0" style="stop-color:#7A53A1"/>
	<stop  offset="1" style="stop-color:#F06052"/>
</linearGradient>
<rect x="-329.8" y="-175.4" class="st6" width="235.9" height="235.9"/>
</svg>
