<?xml version="1.0" encoding="utf-8"?>
<!-- Generator: Adobe Illustrator 23.0.6, SVG Export Plug-In . SVG Version: 6.00 Build 0)  -->
<svg version="1.1"
	 id="Warstwa_1" xmlns:cc="http://creativecommons.org/ns#" xmlns:dc="http://purl.org/dc/elements/1.1/" xmlns:rdf="http://www.w3.org/1999/02/22-rdf-syntax-ns#"
	 xmlns="http://www.w3.org/2000/svg" xmlns:xlink="http://www.w3.org/1999/xlink" x="0px" y="0px" viewBox="0 0 100 95.3"
	 style="enable-background:new 0 0 100 95.3;" xml:space="preserve">
<style type="text/css">
	.st0{fill:url(#SVGID_1_);}
	.st1{fill:url(#SVGID_2_);}
	.st2{fill:url(#SVGID_3_);}
	.st3{fill:url(#SVGID_4_);}
	.st4{fill:url(#SVGID_5_);}
	.st5{fill:url(#SVGID_6_);}
	.st6{fill:url(#SVGID_7_);}
	.st7{fill:url(#SVGID_8_);}
	.st8{fill:#FFFFFF;}
</style>
<g>
	<linearGradient id="SVGID_1_" gradientUnits="userSpaceOnUse" x1="26.3953" y1="41.0288" x2="70.4911" y2="41.0288">
		<stop  offset="0" style="stop-color:#7A53A1"/>
		<stop  offset="1" style="stop-color:#F06052"/>
	</linearGradient>
	<path class="st0" d="M27.8,28.5h1.5c0.8,0,1.2,0.2,1.5,0.4c0.3,0.2,0.6,0.6,0.8,1.2v0l5.8,19.2c-1.4,0.6-2.4,1.9-2.3,3.3
		c0.1,0.9,0.6,1.8,1.5,2.4c0.9,0.6,2,0.9,3.4,0.9c0,0,0,0,0,0h22.8c0.7,0,1.3-0.5,1.3-1.2s-0.5-1.3-1.2-1.3c0,0,0,0,0,0H39.9
		c0,0,0,0,0,0c-1,0-1.6-0.2-1.9-0.4c-0.3-0.2-0.4-0.4-0.4-0.6c0-0.4,0.1-0.9,1.3-0.9h0.3h21.1c2.8,0,5.4-1.7,6.2-4.3c0,0,0,0,0,0
		l4-12.9c0.2-0.7-0.2-1.4-0.8-1.6c-0.1,0-0.3-0.1-0.4-0.1H34.9L34,29.4c0,0,0,0,0-0.1c-0.3-0.9-0.8-1.7-1.6-2.4
		c-0.8-0.6-1.9-1-3.1-1h-1.5c0,0-0.1,0-0.1,0c0,0-0.1,0-0.1,0l0,0c-0.7,0.1-1.2,0.7-1.1,1.4S27.1,28.6,27.8,28.5z M35.7,35.1
		L39.9,49h0L35.7,35.1L35.7,35.1z"/>
	<linearGradient id="SVGID_2_" gradientUnits="userSpaceOnUse" x1="3.1592" y1="23.2059" x2="30.2231" y2="8.3974">
		<stop  offset="0" style="stop-color:#7A53A1"/>
		<stop  offset="1" style="stop-color:#F06052"/>
	</linearGradient>
	<rect x="20.3" y="10.6" class="st1" width="4.6" height="4"/>
	<linearGradient id="SVGID_3_" gradientUnits="userSpaceOnUse" x1="1.3483" y1="19.8963" x2="28.4122" y2="5.0878">
		<stop  offset="0" style="stop-color:#7A53A1"/>
		<stop  offset="1" style="stop-color:#F06052"/>
	</linearGradient>
	<rect x="12.4" y="10.6" class="st2" width="4.5" height="4"/>
	<linearGradient id="SVGID_4_" gradientUnits="userSpaceOnUse" x1="4.9701" y1="26.5154" x2="32.0339" y2="11.7069">
		<stop  offset="0" style="stop-color:#7A53A1"/>
		<stop  offset="1" style="stop-color:#F06052"/>
	</linearGradient>
	<rect x="28.2" y="10.6" class="st3" width="4.5" height="4"/>
	<linearGradient id="SVGID_5_" gradientUnits="userSpaceOnUse" x1="55.7452" y1="60.17" x2="63.214" y2="60.17">
		<stop  offset="0" style="stop-color:#7A53A1"/>
		<stop  offset="1" style="stop-color:#F06052"/>
	</linearGradient>
	<path class="st4" d="M59.5,56.4c-2,0-3.8,1.7-3.8,3.8c0,2,1.7,3.7,3.8,3.7s3.7-1.7,3.7-3.7C63.2,58.1,61.5,56.4,59.5,56.4z
		 M59.5,61.4c-0.7,0-1.3-0.5-1.3-1.2c0-0.7,0.6-1.3,1.3-1.3c0.7,0,1.2,0.6,1.2,1.3C60.7,60.9,60.2,61.4,59.5,61.4z"/>
	<linearGradient id="SVGID_6_" gradientUnits="userSpaceOnUse" x1="-20.9109" y1="80.628" x2="99.3444" y2="11.1812">
		<stop  offset="0" style="stop-color:#7A53A1"/>
		<stop  offset="1" style="stop-color:#F06052"/>
	</linearGradient>
	<path class="st5" d="M92.6,4.7L92.6,4.7L20,5l-12.5,0C5.5,5.1,4,6.7,4,8.6v9.8C4,18.7,4,19,4,19.2V71c0,1.9,1.5,3.6,3.5,3.6h1.8
		l-0.1,5.8c0,1.6,0.9,2.9,1.8,4.2s1.9,2.7,2.2,3.3c2.4,4.8,5.7,6.8,9.2,7.3c3.4,0.5,6.8-0.4,9.9-0.7c1.4-0.1,2.6-0.9,3.6-1.8
		c1-0.9,1.9-2,2.3-3.3l3.3-10.2l0-0.1c0.5-1.2,0.6-2.4,0.3-3.4c-0.1-0.4-0.3-0.8-0.6-1.2l51.3-0.2c1.9,0,3.5-1.6,3.5-3.6V8.3
		C96,6.4,94.5,4.7,92.6,4.7z M6.5,8.6c0-0.6,0.4-1.1,1-1.1l12.2,0h0c0,0,0,0,0.1,0h0.3h17.8c0.8,0,2.1,0.8,2.3,1.4l3.7,8.8L6.5,17.6
		V8.6z M39.2,78.2C39.1,78.2,39.1,78.2,39.2,78.2l-3.4,10.4c-0.2,0.5-0.8,1.5-1.6,2.2c-0.8,0.7-1.7,1.1-2.2,1.2
		c-3.3,0.3-6.6,1-9.3,0.7c-2.8-0.4-5.1-1.6-7.3-5.9c-0.5-1.1-1.5-2.3-2.3-3.5s-1.4-2.6-1.4-2.8l0.1-7.7c0,0,0-0.1,0-0.1
		c-0.2-2.3,0.9-3.3,1.8-3.6c0.4-0.1,0.8-0.1,1,0.1c0.2,0.2,0.4,0.5,0.4,1.2l0.2,8.7c0,0.7,0.6,1.2,1.3,1.2c0.5,0,1-0.4,1.1-0.9
		l3.3-10.7h0c1.4-4.3,4-12.5,4.8-15.1c0.1-0.4,0.3-0.5,0.6-0.7c0.2-0.1,0.3-0.1,0.5-0.1l0,0c0.2,0,0.4,0,0.6,0.1
		c0.4,0.1,0.7,0.4,0.9,0.7s0.3,0.7,0.1,1.5c-0.7,2.4-2.7,9-4.2,13.5c-0.2,0.7,0.1,1.4,0.8,1.6c0.3,0.1,0.7,0.1,1-0.1
		c0.7-0.3,1.6-0.4,2.3-0.1c0.7,0.3,1.1,0.7,1.2,2c0,0.7,0.6,1.2,1.3,1.2c0.2,0,0.4-0.1,0.6-0.2c1.1-0.7,1.7-0.6,2.4-0.3
		c0.7,0.4,1.3,1.2,1.7,2.1c0.2,0.6,1,1,1.6,0.7c0.2-0.1,0.4-0.2,0.5-0.4c0,0,0.1-0.1,0.3-0.1c0.3,0,0.7,0.1,1.1,0.3
		c0.3,0.2,0.5,0.5,0.7,0.8C39.5,76.7,39.5,77.3,39.2,78.2z M93.5,70.7c0,0.6-0.4,1.1-1,1.1L36.5,72c-0.4-0.6-0.9-1.1-1.6-1.5
		c-1-0.5-2.2-0.5-3.5-0.1c-0.5-1.3-1.2-2.3-2.3-2.7c-0.6-0.3-1.3-0.3-2-0.3c1.4-4.3,3-9.6,3.6-11.5c0.4-1.3,0.3-2.5-0.3-3.4
		c-0.5-0.9-1.4-1.5-2.3-1.8c-0.5-0.2-0.9-0.2-1.4-0.2c-0.5,0-1,0.1-1.4,0.3c-0.9,0.4-1.8,1.2-2.1,2.3c-0.8,2.6-3.4,10.8-4.8,15.1
		l-1,3.2v-0.8c0-1.4-0.6-2.5-1.5-3.2c-0.9-0.7-2.1-0.8-3.2-0.4c-1.9,0.6-3.6,2.7-3.5,5.6H7.5c0,0,0,0,0,0c-0.5,0-0.9-0.4-0.9-1.1
		V20.1l87,0.3V70.7z M93.5,17.9l-46.9-0.2L42.5,8c-0.1-0.2-0.2-0.4-0.3-0.6l50.4-0.2l0,0c0.5,0,1,0.4,1,1.1V17.9z"/>
	<linearGradient id="SVGID_7_" gradientUnits="userSpaceOnUse" x1="37.8704" y1="60.17" x2="45.3392" y2="60.17">
		<stop  offset="0" style="stop-color:#7A53A1"/>
		<stop  offset="1" style="stop-color:#F06052"/>
	</linearGradient>
	<path class="st6" d="M41.6,56.4c-2,0-3.7,1.7-3.7,3.8c0,2,1.7,3.7,3.7,3.7c2,0,3.8-1.7,3.8-3.7C45.3,58.1,43.6,56.4,41.6,56.4z
		 M41.6,61.4c-0.7,0-1.2-0.5-1.2-1.2c0-0.7,0.5-1.3,1.2-1.3s1.3,0.6,1.3,1.3C42.8,60.9,42.3,61.4,41.6,61.4z"/>
</g>
<g>
	<linearGradient id="SVGID_8_" gradientUnits="userSpaceOnUse" x1="-125.8141" y1="7.2478" x2="-102.5064" y2="7.2478">
		<stop  offset="0" style="stop-color:#7A53A1"/>
		<stop  offset="1" style="stop-color:#F06052"/>
	</linearGradient>
	<path class="st7" d="M-114.6,1.7L-114.6,1.7c0.2,0.1,0.5,0.1,0.8,0l4.6-3.1c0.2-0.1,0.3-0.4,0.3-0.6c0-0.2-0.1-0.5-0.3-0.6
		l-4.6-3.1c-0.2-0.2-0.5-0.2-0.8,0c-0.2,0.1-0.4,0.4-0.4,0.6v2.4c-6.1,0.3-10.8,5.5-10.8,11.6c0,6.4,5.3,11.7,11.7,11.7
		c6.4,0,11.7-5.3,11.7-11.7c0-3.1-1.2-6.1-3.4-8.3c-0.3-0.3-0.8-0.3-1,0c-0.3,0.3-0.3,0.8,0,1c2,2,3,4.4,3,7.2
		c0,5.6-4.5,10.1-10.1,10.1c-5.6,0-10.1-4.5-10.1-10.1c0-5.4,4.1-9.7,9.4-10.1V1C-114.9,1.3-114.8,1.5-114.6,1.7z M-113.4-0.4v-3.4
		l2.5,1.7L-113.4-0.4z"/>
</g>
<path class="st8" d="M41.6,36.9c-0.7,0.1-1.2,0.7-1.1,1.4s0.7,1.2,1.4,1.1l0,0H62c0.7,0,1.3-0.5,1.3-1.2c0-0.7-0.5-1.3-1.2-1.3
	c0,0,0,0,0,0H41.9C41.8,36.8,41.7,36.8,41.6,36.9z"/>
<path class="st8" d="M42.7,40.8c-0.7,0.1-1.2,0.7-1.1,1.4s0.7,1.2,1.4,1.1l0,0h17.9c0.7,0,1.3-0.5,1.3-1.2c0-0.7-0.5-1.3-1.2-1.3
	c0,0,0,0,0,0H43C42.9,40.8,42.8,40.8,42.7,40.8z"/>
<path class="st8" d="M44.3,44.8c-0.7,0.1-1.2,0.7-1.1,1.4s0.7,1.2,1.4,1.1l0,0h14.8c0.7,0,1.3-0.5,1.3-1.2c0-0.7-0.5-1.3-1.2-1.3
	c0,0,0,0,0,0H44.6c0,0-0.1,0-0.1,0C44.4,44.8,44.4,44.8,44.3,44.8z"/>
</svg>
