<?xml version="1.0" encoding="utf-8"?>
<!-- Generator: Adobe Illustrator 23.0.6, SVG Export Plug-In . SVG Version: 6.00 Build 0)  -->
<svg version="1.1"
	 id="Warstwa_1" xmlns:cc="http://creativecommons.org/ns#" xmlns:dc="http://purl.org/dc/elements/1.1/" xmlns:inkscape="http://www.inkscape.org/namespaces/inkscape" xmlns:rdf="http://www.w3.org/1999/02/22-rdf-syntax-ns#" xmlns:sodipodi="http://sodipodi.sourceforge.net/DTD/sodipodi-0.dtd" xmlns:svg="http://www.w3.org/2000/svg"
	 xmlns="http://www.w3.org/2000/svg" xmlns:xlink="http://www.w3.org/1999/xlink" x="0px" y="0px" viewBox="0 0 43.9 34.1"
	 style="enable-background:new 0 0 43.9 34.1;" xml:space="preserve">
<style type="text/css">
	.st0{fill:url(#SVGID_1_);}
</style>
<g transform="translate(0,-1004.3622)">
	<linearGradient id="SVGID_1_" gradientUnits="userSpaceOnUse" x1="0" y1="1021.3195" x2="43.2949" y2="1021.3195">
		<stop  offset="0" style="stop-color:#7A53A1"/>
		<stop  offset="1" style="stop-color:#F06052"/>
	</linearGradient>
	<path class="st0" d="M26.8,1005.3v2.3H30v-2.3H26.8z M13.3,1005.3v0.5h3.9v1.2h-3.9v0.7h2.4v1.2h-2.4v0.7h3.9v1.2h-3.9v0.7h2.4v1.2
		h-2.4v0.7h3.9v1.2h-3.9v0.7h2.4v1.2h-2.4v0.7h3.9v1.2h-3.9v0.7h2.4v1.2h-2.4v0.7h3.9v1.2h-3.9v0.7h2.4v1.2h-2.4v0.7h3.9v1.2h-3.9
		v0.7h2.4v1.2h-2.4v0.7h3.9v1.2h-3.9v0.6h5.3v-24.6H13.3z M26.8,1008.8l0,16.4h1l0-16.4H26.8z M29,1008.8v16.4h1l0-16.4H29z
		 M5.2,1014.2c-0.5,0-0.9,0.4-0.9,0.9v19.2c0,0.5,0.4,0.9,0.9,0.9h33c0.5,0,0.9-0.4,0.9-0.9v-19.2c0-0.5-0.4-0.9-0.9-0.9h-6.9v1.2h6
		c0.3,0,0.6,0.3,0.6,0.6v17.3c0,0.3-0.3,0.6-0.6,0.6H6h0c0,0,0,0-0.1,0c0,0,0,0-0.1,0c-0.3-0.1-0.5-0.3-0.5-0.6V1016
		c0-0.3,0.2-0.6,0.6-0.6h6.1v-1.2L5.2,1014.2z M19.8,1014.2v1.2h5.8l0-1.2H19.8z M19.8,1016.6v13.9v0.6h-7.7v-0.6
		c0-4.6,0-9.3,0-13.9H6.6v16.1h30v-16.1h-5.4v9.5l-2.8,5.1l-2.8-5.1l0-9.5H19.8z M27.1,1026.3l1.3,2.4l1.3-2.4H27.1z M0,1036.4v0.9
		h43.3v-0.9h-5.1c0,0,0,0,0,0h-33c0,0,0,0,0,0H0z"/>
</g>
</svg>
