<?xml version="1.0" encoding="utf-8"?>
<!-- Generator: Adobe Illustrator 23.0.6, SVG Export Plug-In . SVG Version: 6.00 Build 0)  -->
<svg version="1.1" id="Warstwa_1" xmlns="http://www.w3.org/2000/svg" xmlns:xlink="http://www.w3.org/1999/xlink" x="0px" y="0px"
	 viewBox="0 0 66 64.6" style="enable-background:new 0 0 66 64.6;" xml:space="preserve">
<style type="text/css">
	.st0{fill:url(#SVGID_1_);}
	.st1{fill:url(#SVGID_2_);}
	.st2{fill:url(#SVGID_3_);}
	.st3{fill:url(#SVGID_4_);}
	.st4{fill:url(#SVGID_5_);}
</style>
<title>a</title>
<linearGradient id="SVGID_1_" gradientUnits="userSpaceOnUse" x1="36.3296" y1="19.3885" x2="45.7229" y2="19.3885">
	<stop  offset="0" style="stop-color:#7A53A1"/>
	<stop  offset="1" style="stop-color:#F06052"/>
</linearGradient>
<path class="st0" d="M36.7,13.1c-0.5,0.5-0.5,1.3,0,1.8c0.5,0.5,1.3,0.5,1.8,0c1.1-1.1,2.8-1.1,3.9,0c1.1,1.1,1.1,2.9,0,3.9L39,22.2
	c-0.2,0.2-0.4,0.6-0.4,0.9V26c0,0.7,0.6,1.3,1.3,1.3s1.3-0.6,1.3-1.3v-2.3l3-3c2.1-2.1,2.1-5.4,0-7.5S38.8,11.1,36.7,13.1L36.7,13.1
	z"/>
<linearGradient id="SVGID_2_" gradientUnits="userSpaceOnUse" x1="38.0732" y1="31.1496" x2="41.7406" y2="31.1496">
	<stop  offset="0" style="stop-color:#7A53A1"/>
	<stop  offset="1" style="stop-color:#F06052"/>
</linearGradient>
<path class="st1" d="M39.9,29.3c-1,0-1.8,0.8-1.8,1.8c0,1,0.8,1.8,1.8,1.8c1,0,1.8-0.8,1.8-1.8C41.7,30.1,40.9,29.3,39.9,29.3
	C39.9,29.3,39.9,29.3,39.9,29.3z"/>
<linearGradient id="SVGID_3_" gradientUnits="userSpaceOnUse" x1="1.7324" y1="44.2937" x2="44.6517" y2="44.2937">
	<stop  offset="0" style="stop-color:#7A53A1"/>
	<stop  offset="1" style="stop-color:#F06052"/>
</linearGradient>
<path class="st2" d="M43.8,47.4c-0.7-0.2-1.4,0.2-1.6,0.8c-2.8,9.5-12.8,14.9-22.4,12.1c-2-0.6-3.9-1.5-5.5-2.8l-0.2-0.2l-0.3,0
	c-3-0.5-6-0.4-9,0.4l3.4-8.1L8,49.1c-2.8-7.7,0-16.3,6.8-20.9c0.4-0.3,0.8-0.5,1.3-0.8c0.6-0.3,0.8-1.1,0.5-1.7s-1.1-0.8-1.7-0.5
	l0,0c-0.5,0.3-1,0.6-1.5,0.9C5.9,31.3,2.6,40.8,5.5,49.5l-3.7,8.7c-0.4,0.9,0,1.9,0.9,2.3c0.4,0.2,0.8,0.2,1.2,0.1
	c2.9-1,6-1.3,9.1-0.8c9.2,6.6,22,4.4,28.6-4.8c1.3-1.8,2.3-3.9,3-6C44.8,48.2,44.4,47.6,43.8,47.4z"/>
<linearGradient id="SVGID_4_" gradientUnits="userSpaceOnUse" x1="20.3929" y1="22.8375" x2="64.2649" y2="22.8375">
	<stop  offset="0" style="stop-color:#7A53A1"/>
	<stop  offset="1" style="stop-color:#F06052"/>
</linearGradient>
<path class="st3" d="M64.1,38.1l-3.7-8.7c3.6-10.8-2.2-22.4-13-26s-22.4,2.2-26,13s2.2,22.4,13,26c6.2,2.1,13.1,1.1,18.5-2.8
	c3.1-0.4,6.2-0.2,9.1,0.8c0.9,0.3,1.9-0.2,2.2-1.1C64.3,38.9,64.3,38.5,64.1,38.1L64.1,38.1z M52.2,37.1l-0.3,0l-0.2,0.2
	c-8,5.9-19.2,4.2-25.1-3.8s-4.2-19.2,3.8-25.1c3.1-2.3,6.9-3.5,10.7-3.5c9.9,0,18,8,18,18C59,25,58.7,27,58,29l-0.2,0.5l3.4,8.1
	C58.3,36.8,55.2,36.7,52.2,37.1z"/>
<linearGradient id="SVGID_5_" gradientUnits="userSpaceOnUse" x1="91.9362" y1="40.8907" x2="327.8511" y2="40.8907">
	<stop  offset="0" style="stop-color:#7A53A1"/>
	<stop  offset="1" style="stop-color:#F06052"/>
</linearGradient>
<rect x="91.9" y="-77.1" class="st4" width="235.9" height="235.9"/>
</svg>
