<?xml version="1.0" encoding="utf-8"?>
<!-- Generator: Adobe Illustrator 23.0.6, SVG Export Plug-In . SVG Version: 6.00 Build 0)  -->
<svg version="1.1" id="Warstwa_1" xmlns="http://www.w3.org/2000/svg" xmlns:xlink="http://www.w3.org/1999/xlink" x="0px" y="0px"
	 viewBox="0 0 128 141.3" style="enable-background:new 0 0 128 141.3;" xml:space="preserve">
<style type="text/css">
	.st0{fill:url(#SVGID_1_);}
	.st1{fill:url(#SVGID_2_);}
	.st2{fill:url(#SVGID_3_);}
	.st3{fill:url(#SVGID_4_);}
	.st4{fill:url(#SVGID_5_);}
	.st5{fill:url(#SVGID_6_);}
	.st6{fill:url(#SVGID_7_);}
</style>
<linearGradient id="SVGID_1_" gradientUnits="userSpaceOnUse" x1="46.7081" y1="71.3921" x2="81.3081" y2="71.3921">
	<stop  offset="0" style="stop-color:#7A53A1"/>
	<stop  offset="1" style="stop-color:#F06052"/>
</linearGradient>
<path class="st0" d="M64,54.1c-9.5,0-17.3,7.7-17.3,17.3c0,9.5,7.8,17.3,17.3,17.3S81.3,81,81.3,71.4C81.3,61.9,73.5,54.1,64,54.1z
	 M64,84.7c-7.3,0-13.3-6-13.3-13.3s6-13.3,13.3-13.3s13.3,6,13.3,13.3S71.3,84.7,64,84.7z"/>
<linearGradient id="SVGID_2_" gradientUnits="userSpaceOnUse" x1="18.6929" y1="70.6911" x2="109.3425" y2="70.6911">
	<stop  offset="0" style="stop-color:#7A53A1"/>
	<stop  offset="1" style="stop-color:#F06052"/>
</linearGradient>
<path class="st1" d="M109.1,85.9c-0.5-2.2-1.8-4-3.6-5l-4.5-2.6c0.4-2.3,0.6-4.6,0.6-6.8c0-3.3-0.3-6.2-1.1-9.1l4.5-2.7
	c4-2.3,5.3-6.6,3.2-10.3l-3.7-6.4c-1.5-2.5-4.3-4.2-7.2-4.2c-1.3,0-2.6,0.3-3.8,1l-5.1,3c-3.9-3.4-8.4-5.9-13.4-7.4v-5.7
	c0-4.6-3.1-7.9-7.3-7.9h-7.4c-4.5-0.1-8.3,3.6-8.3,7.9v6c-4.8,1.6-9.3,4.2-13.2,7.8L34,40.7c-1.4-0.8-2.9-1.2-4.4-1.2
	c-2.6,0-4.8,1.3-6.1,3.6l-3.7,6.4c-1,1.8-1.4,4-0.9,6.1c0.5,2.2,1.8,4,3.7,5.1l4.7,2.6c-0.6,2.7-0.9,5.4-0.9,8.2
	c0,2.6,0.3,5.3,0.8,7.8L23,81.7c-4,2.3-5.3,6.6-3.2,10.3l3.7,6.4c1.5,2.5,4.3,4.2,7.2,4.2c1.3,0,2.6-0.3,3.8-1l4.1-2.4
	c4.1,3.8,9.1,6.6,14.4,8.2v4.3c0,4.6,3.1,7.9,7.3,7.9h7.4c4.5,0,8.3-3.6,8.3-8l-0.1-4.6c5.3-1.8,10.2-4.7,14.2-8.6l3.9,2.3
	c1.4,0.8,2.9,1.2,4.4,1.2c2.6,0,4.8-1.3,6.1-3.6l3.7-6.4C109.3,90.2,109.6,87.9,109.1,85.9z M104.8,90l-3.7,6.4
	c-0.7,1.3-1.9,1.6-2.7,1.6c-0.8,0-1.6-0.2-2.4-0.7l-6.6-3.8l-1.1,1.1c-4.1,4.3-9.3,7.5-15,9.1l-1.5,0.4l0.2,7.6c0,2.1-2,3.9-4.3,3.9
	h-7.4c-2.4,0-3.3-2.1-3.3-3.9v-7.3l-1.5-0.4c-5.7-1.5-11-4.5-15.2-8.7l-1.1-1.1l-6.7,3.9c-0.5,0.3-1.1,0.5-1.8,0.5
	c-1.5,0-3-0.9-3.8-2.2L23.2,90c-1.2-2.1,0.2-3.9,1.8-4.8l6.8-3.9l-0.4-1.5c-0.7-2.7-1-5.5-1-8.3c0-2.9,0.4-5.8,1.1-8.7l0.4-1.5
	l-7.4-4.1c-0.9-0.5-1.5-1.4-1.7-2.5c-0.3-1.1-0.1-2.3,0.5-3.2l3.7-6.4c0.7-1.3,1.9-1.6,2.7-1.6c0.8,0,1.6,0.2,2.4,0.7l7.4,4.3
	l1.1-1.1c4.2-4.1,8.8-6.8,14.1-8.3l1.3-0.4v-9c0-2.1,2-3.9,4.3-3.9h7.4c2.4,0,3.3,2.1,3.3,4l0.1,8.8l1.5,0.4
	c5.4,1.4,10.3,4.1,14.3,7.8l1.1,1l7.6-4.5c0.5-0.3,1.1-0.5,1.8-0.5c1.5,0,3,0.9,3.8,2.2l3.7,6.4c1.2,2.1-0.2,3.9-1.8,4.8l-7.2,4.2
	l0.5,1.5c0.9,3,1.3,6,1.3,9.5c0,2.5-0.3,5-0.8,7.4l-0.3,1.4l7,4c0.9,0.5,1.5,1.4,1.7,2.5C105.5,87.9,105.3,89,104.8,90z"/>
<linearGradient id="SVGID_3_" gradientUnits="userSpaceOnUse" x1="26.6652" y1="16.3878" x2="107.2081" y2="16.3878">
	<stop  offset="0" style="stop-color:#7A53A1"/>
	<stop  offset="1" style="stop-color:#F06052"/>
</linearGradient>
<path class="st2" d="M28.7,21.8c0.4,0,0.8-0.1,1.2-0.4c18.2-13,43.3-14.3,63-3.6l-6.4,2.7l20.7,5.6L96.3,7.6l-0.9,7.1
	C74.2,2.9,47.2,4.2,27.5,18.2c-0.9,0.6-1.1,1.9-0.5,2.8C27.4,21.5,28.1,21.8,28.7,21.8z"/>
<linearGradient id="SVGID_4_" gradientUnits="userSpaceOnUse" x1="-5.473204e-04" y1="67.7421" x2="19.5081" y2="67.7421">
	<stop  offset="0" style="stop-color:#7A53A1"/>
	<stop  offset="1" style="stop-color:#F06052"/>
</linearGradient>
<path class="st3" d="M11.2,41.8l2.7,6.4l5.6-20.7L0.9,38.4L8,39.3c-11.8,21.2-10.5,48.2,3.5,67.9c0.4,0.5,1,0.8,1.6,0.8
	c0.4,0,0.8-0.1,1.2-0.4c0.9-0.6,1.1-1.9,0.5-2.8C1.8,86.6,0.4,61.6,11.2,41.8z"/>
<linearGradient id="SVGID_5_" gradientUnits="userSpaceOnUse" x1="20.8081" y1="124.8921" x2="101.3511" y2="124.8921">
	<stop  offset="0" style="stop-color:#7A53A1"/>
	<stop  offset="1" style="stop-color:#F06052"/>
</linearGradient>
<path class="st4" d="M98.2,119.9c-18.2,13-43.3,14.3-63.1,3.6l6.4-2.7l-20.7-5.6l10.9,18.5l0.9-7.1c9.6,5.4,20.4,8,31.2,8
	c13,0,25.9-3.9,36.7-11.5c0.9-0.6,1.1-1.9,0.5-2.8C100.3,119.5,99.1,119.3,98.2,119.9z"/>
<linearGradient id="SVGID_6_" gradientUnits="userSpaceOnUse" x1="108.5081" y1="73.5707" x2="128.0005" y2="73.5707">
	<stop  offset="0" style="stop-color:#7A53A1"/>
	<stop  offset="1" style="stop-color:#F06052"/>
</linearGradient>
<path class="st5" d="M116.5,34.2c-0.6-0.9-1.9-1.1-2.8-0.5c-0.9,0.6-1.1,1.9-0.5,2.8c13,18.2,14.3,43.3,3.6,63l-2.7-6.4l-5.6,20.7
	l18.5-10.9l-7.1-0.9C131.8,80.9,130.5,53.9,116.5,34.2z"/>
<linearGradient id="SVGID_7_" gradientUnits="userSpaceOnUse" x1="-166.4043" y1="-14.9904" x2="-71.1489" y2="-14.9904">
	<stop  offset="0" style="stop-color:#7A53A1"/>
	<stop  offset="1" style="stop-color:#F06052"/>
</linearGradient>
<path class="st6" d="M-118.8-54.4c-26.3,0-47.6,17.7-47.6,39.4s21.3,39.4,47.6,39.4S-71.1,6.7-71.1-15S-92.5-54.4-118.8-54.4z
	 M-101.4-26.9c2-0.1,3,1.9,1.6,3.1l-24.3,20.2c-0.8,0.7-2.2,0.7-3.1,0l-10.4-8.7c-2-1.7,1-4.2,3.1-2.5l8.9,7.4l22.8-19
	C-102.5-26.7-102-26.9-101.4-26.9z"/>
</svg>
