<?xml version="1.0" encoding="utf-8"?>
<!-- Generator: Adobe Illustrator 23.0.6, SVG Export Plug-In . SVG Version: 6.00 Build 0)  -->
<svg version="1.1" xmlns="http://www.w3.org/2000/svg" xmlns:xlink="http://www.w3.org/1999/xlink" x="0px" y="0px"
	 viewBox="0 0 100 88.5" style="enable-background:new 0 0 100 88.5;" xml:space="preserve">
<style type="text/css">
	.st0{fill:url(#SVGID_1_);}
	.st1{fill:url(#SVGID_2_);}
	.st2{fill:url(#SVGID_3_);}
	.st3{fill:url(#SVGID_4_);}
	.st4{fill:url(#SVGID_5_);}
</style>
<g id="Warstwa_2">
</g>
<g id="Warstwa_1">
	<g>
		<path d="M5273.1,2392.1v-2c0-2.8-5-4-9.7-4s-9.7,1.3-9.7,4v2c0,1.8,0.7,3.6,2,4.9l5,4.9c0.3,0.3,0.4,0.6,0.4,1v6.4
			c0,0.4,0.2,0.7,0.6,0.8l2.9,0.9c0.5,0.1,1-0.2,1-0.8v-7.2c0-0.4,0.2-0.7,0.4-1l5.1-5C5272.4,2395.7,5273.1,2393.9,5273.1,2392.1z
			 M5263.4,2392c-4.8,0-7.4-1.3-7.5-1.8l0,0c0.1-0.5,2.7-1.8,7.5-1.8s7.3,1.3,7.5,1.8C5270.7,2390.7,5268.2,2392,5263.4,2392z"/>
		<path d="M5268.4,2402.3c-0.6,0-1,0.4-1,1s0.4,1,1,1h4.3c0.6,0,1-0.4,1-1s-0.4-1-1-1H5268.4z"/>
		<path d="M5272.7,2405.7h-4.3c-0.6,0-1,0.4-1,1s0.4,1,1,1h4.3c0.6,0,1-0.4,1-1C5273.7,2406.1,5273.3,2405.7,5272.7,2405.7z"/>
		<path d="M5272.7,2409h-4.3c-0.6,0-1,0.4-1,1s0.4,1,1,1h4.3c0.6,0,1-0.4,1-1C5273.7,2409.5,5273.3,2409,5272.7,2409z"/>
	</g>
	<g>
		<linearGradient id="SVGID_1_" gradientUnits="userSpaceOnUse" x1="24.3" y1="31.146" x2="53.7" y2="31.146">
			<stop  offset="0" style="stop-color:#7A53A1"/>
			<stop  offset="1" style="stop-color:#F06052"/>
		</linearGradient>
		<path class="st0" d="M53.7,39.3V23.1c0-0.9-0.5-1.8-1.4-2.2L40,15.3c-0.6-0.3-1.4-0.3-2,0l-12.3,5.6c-0.8,0.4-1.4,1.2-1.4,2.2
			v16.2c0,0.9,0.5,1.8,1.4,2.2L38,47.1c0.3,0.1,0.7,0.2,1,0.2s0.7-0.1,1-0.2l12.3-5.6C53.2,41,53.7,40.2,53.7,39.3z M39,20.1l6.6,3
			l-6.6,3l-6.6-3L39,20.1z M29,26.8l7.6,3.5v10.9L29,37.7V26.8z M41.4,41.2v-11l7.6-3.5v10.9L41.4,41.2z"/>
		<linearGradient id="SVGID_2_" gradientUnits="userSpaceOnUse" x1="22.4" y1="55.7585" x2="48.4" y2="55.7585">
			<stop  offset="0" style="stop-color:#7A53A1"/>
			<stop  offset="1" style="stop-color:#F06052"/>
		</linearGradient>
		<path class="st1" d="M46,53.4H24.8c-1.3,0-2.4,1.1-2.4,2.4s1.1,2.4,2.4,2.4H46c1.3,0,2.4-1.1,2.4-2.4S47.3,53.4,46,53.4z"/>
		<linearGradient id="SVGID_3_" gradientUnits="userSpaceOnUse" x1="22.4" y1="67.7585" x2="48.4" y2="67.7585">
			<stop  offset="0" style="stop-color:#7A53A1"/>
			<stop  offset="1" style="stop-color:#F06052"/>
		</linearGradient>
		<path class="st2" d="M46,65.4H24.8c-1.3,0-2.4,1.1-2.4,2.4s1.1,2.4,2.4,2.4H46c1.3,0,2.4-1.1,2.4-2.4C48.3,66.5,47.3,65.4,46,65.4
			z"/>
		<linearGradient id="SVGID_4_" gradientUnits="userSpaceOnUse" x1="2.5" y1="41.9585" x2="97.5153" y2="41.9585">
			<stop  offset="0" style="stop-color:#7A53A1"/>
			<stop  offset="1" style="stop-color:#F06052"/>
		</linearGradient>
		<path class="st3" d="M97.5,31.6c-0.1-1.1-0.6-2.1-1.4-2.8l-6.2-5.3c-1.7-1.5-4.4-1.3-5.8,0.5L70,40.3V7c0-2.3-1.8-4.1-4.1-4.1H6.6
			C4.3,2.9,2.5,4.7,2.5,7v70c0,2.3,1.8,4.1,4.1,4.1H66c2.2,0,4.1-1.8,4.1-4.1V65.8l26.5-31.2C97.2,33.7,97.6,32.7,97.5,31.6z
			 M58.9,60.7l1.8-2.2L66,63l-1.7,2l-6.2,2L58.9,60.7z M63.9,54.9l17.3-20.4l5.3,4.5L69.1,59.4L63.9,54.9z M13.1,76.3V7.7h52.1v38.2
			l-9.9,11.6c-0.5,0.6-0.8,1.3-0.9,2.1l-1.1,7.6c-0.2,1.4,0.3,2.8,1.4,3.7c0.8,0.6,1.7,1,2.7,1c0.4,0,0.8-0.1,1.2-0.2l6.6-2.1v6.6
			H13.1V76.3z M89.6,35.4l-5.3-4.5l2.9-3.4l5.3,4.5L89.6,35.4z"/>
	</g>
	<linearGradient id="SVGID_5_" gradientUnits="userSpaceOnUse" x1="-299.6383" y1="153.3159" x2="-63.7234" y2="153.3159">
		<stop  offset="0" style="stop-color:#7A53A1"/>
		<stop  offset="1" style="stop-color:#F06052"/>
	</linearGradient>
	<rect x="-299.6" y="35.4" class="st4" width="235.9" height="235.9"/>
</g>
</svg>
