<?xml version="1.0" encoding="utf-8"?>
<!-- Generator: Adobe Illustrator 23.0.6, SVG Export Plug-In . SVG Version: 6.00 Build 0)  -->
<svg version="1.1" id="Warstwa_1" xmlns="http://www.w3.org/2000/svg" xmlns:xlink="http://www.w3.org/1999/xlink" x="0px" y="0px"
	 viewBox="0 0 100 92.3" style="enable-background:new 0 0 100 92.3;" xml:space="preserve">
<style type="text/css">
	.st0{fill:url(#SVGID_1_);}
	.st1{fill:url(#SVGID_2_);}
</style>
<linearGradient id="SVGID_1_" gradientUnits="userSpaceOnUse" x1="1.385" y1="47.6532" x2="98.615" y2="47.6532">
	<stop  offset="0" style="stop-color:#7A53A1"/>
	<stop  offset="1" style="stop-color:#F06052"/>
</linearGradient>
<path class="st0" d="M3.9,54.9L1.4,30.4c-0.1-1.2,0.3-2.4,1.2-3.2c1.1-0.9,2.9-1.2,4.3,0.3c0.9,1.1,1.4,4.4,1.6,5.3
	c0.5,3.2,1.1,7.8,1.2,11c0,0.2,0,0.5,0,0.7c0.1,1.4,0.4,2.7,1,4c3.3,7.1,9.8,16.1,9.8,16.1l0.4,0.5c0.3,0.4,0.8,0.5,1.2,0.3
	c0.5-0.3,0.6-0.9,0.4-1.3L13.8,50c-0.9-1.6-0.4-3.8,1.3-4.8s3.9-0.5,4.9,1.1l9,11.6c0.6,0.8,1.7,1.9,2.5,2.4
	c8.1,5.8,9.2,11.8,9.9,14.8c0,0,0.1,0.7,0.1,1.7l0,0l0,0c0,0.8,0,1.8-0.2,2.8l-0.5,9.7c0,0.7-0.6,1.3-1.3,1.3l-15.2-0.1
	c-0.7,0-1.3-0.6-1.3-1.3l-0.3-8L8.1,63.7c-2.1-2.3-3.6-4.8-4-7.9L3.9,54.9z M10.5,29.2c0.3,0.9,0.4,1.7,0.6,2.6
	c0.5,2.8,1.1,7.8,1.2,10.4c0,0.3,0,0.5,0,0.8c0.3-0.3,0.6-0.5,1-0.7c0.4-0.3,0.9-0.5,1.4-0.6c0,0,0-0.1,0.1-0.1
	c-0.3-2.5-1.2-7.3-1.9-9.8C12.5,30.5,11.8,29.6,10.5,29.2z M15.4,32.7c0.4,1.8,1.4,5.2,1.7,7l0.2,1.2c0,0.1,0,0.2,0,0.3
	c0.7,0,1.5,0.2,2.2,0.4c-0.2-1.6-1.3-4.9-1.7-6.4C17.3,34,16.6,33.1,15.4,32.7z M93.1,27.5c-0.9,1.1-1.4,4.4-1.6,5.3
	c-0.5,3.2-1.1,7.8-1.2,11c0,0.2,0,0.5,0,0.7c-0.1,1.4-0.4,2.7-1,4c-3.3,7.1-9.8,16.1-9.8,16.1l-0.4,0.5c-0.3,0.4-0.8,0.5-1.2,0.3
	c-0.5-0.3-0.6-0.9-0.4-1.3L86.2,50c0.9-1.6,0.4-3.8-1.3-4.8c-1.7-1-3.9-0.5-4.9,1.1l-9,11.6c-0.6,0.8-1.7,1.9-2.5,2.4
	c-8.1,5.8-9.2,11.8-9.9,14.8c0,0-0.1,0.7-0.1,1.7l0,0c0,0.8,0,1.8,0.2,2.8l0.5,9.7c0,0.7,0.6,1.3,1.3,1.3l15.2-0.1
	c0.7,0,1.3-0.6,1.3-1.3l0.3-8l14.6-17.5c2.1-2.3,3.6-4.8,4.1-7.9l0.1-0.9l2.5-24.5c0.1-1.2-0.3-2.4-1.2-3.2
	C96.2,26.3,94.4,26,93.1,27.5z M85.3,41.5C85.3,41.5,85.3,41.6,85.3,41.5c0.5,0.2,1,0.5,1.4,0.7s0.7,0.5,1,0.7c0-0.3,0-0.5,0-0.8
	c0.1-2.7,0.7-7.6,1.2-10.4c0.1-0.8,0.3-1.7,0.6-2.6c-1.3,0.4-2,1.3-2.3,2.6C86.5,34.2,85.6,39,85.3,41.5z M82.3,35.2
	c-0.4,1.5-1.5,4.8-1.7,6.4c0.7-0.3,1.4-0.4,2.2-0.4c0-0.1,0-0.2,0-0.3l0.2-1.2c0.2-1.8,1.3-5.1,1.7-7C83.4,33.1,82.7,34,82.3,35.2z
	 M69.7,36.8c-0.5,1.9-1.2,3.7-2.2,5.4l2.9,4.1c0.5,0.8,0.4,1.8-0.2,2.5l-1.8,1.8l-1.8,1.8c-0.7,0.7-1.7,0.7-2.5,0.2L60,49.7
	c-1.6,1-3.4,1.7-5.2,2.2l-0.8,5c-0.2,0.9-1,1.6-1.9,1.6h-2.5h-2.5c-0.9,0-1.7-0.7-1.9-1.6L44.4,52c-1.8-0.5-3.7-1.2-5.4-2.2l-4,2.7
	c-0.8,0.5-1.8,0.4-2.5-0.2l-1.8-1.8L29,48.8c-0.7-0.7-0.7-1.7-0.2-2.5l2.9-4.1c-1-1.7-1.8-3.5-2.3-5.3l-5-0.8
	c-0.9-0.2-1.6-1-1.6-1.9v-2.5v-2.5c0-0.9,0.7-1.7,1.6-1.9l4.9-0.8c0.5-1.8,1.2-3.7,2.2-5.4L28.6,17c-0.5-0.8-0.4-1.8,0.2-2.5
	l1.8-1.8l1.8-1.8c0.7-0.7,1.7-0.7,2.5-0.2l4.1,2.9c1.7-1.1,3.6-1.8,5.5-2.3l0.8-5c0.2-0.9,1-1.6,1.9-1.6h2.5h2.5
	c0.9,0,1.7,0.7,1.9,1.6l0.8,5c1.9,0.5,3.7,1.2,5.4,2.2l4.1-2.9c0.7-0.5,1.8-0.4,2.4,0.2l1.8,1.8l1.8,1.8c0.7,0.7,0.7,1.7,0.2,2.5
	L67.7,21c1,1.7,1.8,3.5,2.2,5.4l5,0.8c0.9,0.2,1.6,1,1.6,1.9v2.5v2.5c0,0.9-0.7,1.7-1.6,1.9L69.7,36.8z M56.6,24.5
	c-3.8-3.8-10-3.8-13.8,0s-3.8,10,0,13.8s10,3.8,13.8,0C60.5,34.6,60.4,28.4,56.6,24.5z"/>
<linearGradient id="SVGID_2_" gradientUnits="userSpaceOnUse" x1="253.1277" y1="-25.6596" x2="489.0425" y2="-25.6596">
	<stop  offset="0" style="stop-color:#7A53A1"/>
	<stop  offset="1" style="stop-color:#F06052"/>
</linearGradient>
<rect x="253.1" y="-143.6" class="st1" width="235.9" height="235.9"/>
</svg>
