<?xml version="1.0" encoding="utf-8"?>
<!-- Generator: Adobe Illustrator 23.0.6, SVG Export Plug-In . SVG Version: 6.00 Build 0)  -->
<svg version="1.1" id="Warstwa_1" xmlns="http://www.w3.org/2000/svg" xmlns:xlink="http://www.w3.org/1999/xlink" x="0px" y="0px"
	 viewBox="0 0 24 27" style="enable-background:new 0 0 24 27;" xml:space="preserve">
<style type="text/css">
	.st0{fill:url(#SVGID_1_);}
	.st1{fill:none;stroke:url(#SVGID_2_);stroke-width:13;stroke-miterlimit:10;}
</style>
<g>
	<linearGradient id="SVGID_1_" gradientUnits="userSpaceOnUse" x1="0.3462" y1="13.5" x2="23.6538" y2="13.5">
		<stop  offset="0" style="stop-color:#7A53A1"/>
		<stop  offset="1" style="stop-color:#F06052"/>
	</linearGradient>
	<path class="st0" d="M11.6,7.9L11.6,7.9c0.2,0.1,0.5,0.1,0.8,0l4.6-3.1c0.2-0.1,0.3-0.4,0.3-0.6c0-0.2-0.1-0.5-0.3-0.6l-4.6-3.1
		c-0.2-0.2-0.5-0.2-0.8,0c-0.2,0.1-0.4,0.4-0.4,0.6v2.4C5.1,3.8,0.3,8.9,0.3,15c0,6.4,5.3,11.7,11.7,11.7S23.7,21.4,23.7,15
		c0-3.1-1.2-6.1-3.4-8.3c-0.3-0.3-0.8-0.3-1,0c-0.3,0.3-0.3,0.8,0,1c2,2,3,4.4,3,7.2c0,5.6-4.5,10.1-10.1,10.1S2,20.6,2,15
		c0-5.4,4.1-9.7,9.4-10.1v2.4C11.3,7.6,11.4,7.8,11.6,7.9z M12.7,5.8V2.4l2.5,1.7L12.7,5.8z"/>
</g>
<linearGradient id="SVGID_2_" gradientUnits="userSpaceOnUse" x1="-94.0823" y1="-7.4362" x2="72.4227" y2="-7.4362">
	<stop  offset="0" style="stop-color:#7A53A1"/>
	<stop  offset="1" style="stop-color:#F06052"/>
</linearGradient>
<polyline class="st1" points="2,107.9 -87.6,107.9 -87.6,-122.8 72.4,-122.8 "/>
</svg>
