<?xml version="1.0" encoding="utf-8"?>
<!-- Generator: Adobe Illustrator 23.0.6, SVG Export Plug-In . SVG Version: 6.00 Build 0)  -->
<svg version="1.1" id="Warstwa_1" xmlns="http://www.w3.org/2000/svg" xmlns:xlink="http://www.w3.org/1999/xlink" x="0px" y="0px"
	 viewBox="0 0 55.1 57.6" style="enable-background:new 0 0 55.1 57.6;" xml:space="preserve">
<style type="text/css">
	.st0{fill-rule:evenodd;clip-rule:evenodd;fill:url(#SVGID_1_);}
	.st1{fill:url(#SVGID_2_);}
</style>
<linearGradient id="SVGID_1_" gradientUnits="userSpaceOnUse" x1="5.2128" y1="30.2191" x2="53.2128" y2="30.2191">
	<stop  offset="0" style="stop-color:#7A53A1"/>
	<stop  offset="1" style="stop-color:#F06052"/>
</linearGradient>
<path class="st0" d="M29.7,2.8c-0.3-0.2-0.7-0.2-1,0l-23,13c-0.3,0.2-0.5,0.5-0.5,0.9v26.8c0,0.4,0.2,0.7,0.5,0.9l23,13.3
	c0.3,0.2,0.7,0.2,1,0l23-13c0.3-0.2,0.5-0.5,0.5-0.9v-27c0-0.4-0.2-0.7-0.5-0.9L29.7,2.8z M17.9,24.6L7.2,18.4v23.3l10.7-6.4
	c-0.8-1.6-1.2-3.5-1.2-5.4C16.7,28,17.1,26.2,17.9,24.6z M28.2,55l-20-11.5l10.7-6.4c2.1,3,5.5,5.1,9.3,5.4V55z M30.2,55V42.4
	c3.8-0.3,7.2-2.4,9.2-5.3l10.8,6.6L30.2,55z M51.2,41.9l-10.8-6.6c0.8-1.6,1.2-3.5,1.2-5.4c0-1.9-0.4-3.7-1.2-5.3l10.7-6.2V41.9z
	 M50.2,16.7l-10.7,6.2c-2.1-3-5.4-5.1-9.3-5.4V5.4L50.2,16.7z M28.2,5.4v12.1c-3.9,0.3-7.2,2.4-9.3,5.4L8.2,16.7L28.2,5.4z"/>
<linearGradient id="SVGID_2_" gradientUnits="userSpaceOnUse" x1="-245.617" y1="69.8298" x2="-9.7021" y2="69.8298">
	<stop  offset="0" style="stop-color:#7A53A1"/>
	<stop  offset="1" style="stop-color:#F06052"/>
</linearGradient>
<rect x="-245.6" y="-48.1" class="st1" width="235.9" height="235.9"/>
</svg>
