<?xml version="1.0" encoding="utf-8"?>
<!-- Generator: Adobe Illustrator 23.0.6, SVG Export Plug-In . SVG Version: 6.00 Build 0)  -->
<svg version="1.1" id="Warstwa_1" xmlns:sketch="http://www.bohemiancoding.com/sketch/ns"
	 xmlns="http://www.w3.org/2000/svg" xmlns:xlink="http://www.w3.org/1999/xlink" x="0px" y="0px" viewBox="0 0 100 78.1"
	 style="enable-background:new 0 0 100 78.1;" xml:space="preserve">
<style type="text/css">
	.st0{fill:none;}
	.st1{fill:url(#SVGID_1_);}
	.st2{fill:url(#SVGID_2_);}
	.st3{fill:url(#SVGID_3_);}
	.st4{fill:none;stroke:url(#SVGID_4_);stroke-width:13;stroke-miterlimit:10;}
	.st5{fill:none;stroke:url(#SVGID_5_);stroke-width:13;stroke-miterlimit:10;}
	.st6{fill:url(#SVGID_6_);}
	.st7{fill:url(#SVGID_7_);}
</style>
<title>windowClick</title>
<desc>Created with Sketch.</desc>
<g sketch:type="MSPage">
	<g>
		<path class="st0" d="M9,70.7c0,1.1,0.9,2,2,2h78c1.1,0,2-0.9,2-2V17.8H9V70.7z M41.1,24.9l24.7,22.9l-11.1-0.3l5.6,12.7
			c0.7,1.7-0.1,3.8-1.8,4.5s-3.7-0.1-4.5-1.8l-5.5-12.6l-7.6,8.3L41.1,24.9z"/>
		<path d="M13.8,7.9c-1.2,0-2.1,0.9-2.1,2.1s1,2.1,2.1,2.1c1.2,0,2.1-0.9,2.1-2.1S15,7.9,13.8,7.9z"/>
		<path d="M19.6,7.9c-1.2,0-2.1,0.9-2.1,2.1s0.9,2.1,2.1,2.1s2.1-0.9,2.1-2.1S20.8,7.9,19.6,7.9z"/>
		<linearGradient id="SVGID_1_" gradientUnits="userSpaceOnUse" x1="40.9" y1="44.8968" x2="65.8" y2="44.8968">
			<stop  offset="0" style="stop-color:#7A53A1"/>
			<stop  offset="1" style="stop-color:#F06052"/>
		</linearGradient>
		<path class="st1" d="M54,62.9c0.8,1.7,2.8,2.5,4.5,1.8s2.5-2.8,1.8-4.5l-5.6-12.7l11.1,0.3L41.1,24.9l-0.2,33.7l7.6-8.3L54,62.9z"
			/>
		<linearGradient id="SVGID_2_" gradientUnits="userSpaceOnUse" x1="5" y1="39.1702" x2="95" y2="39.1702">
			<stop  offset="0" style="stop-color:#7A53A1"/>
			<stop  offset="1" style="stop-color:#F06052"/>
		</linearGradient>
		<path class="st2" d="M89,1.7H11c-3.3,0-6,2.7-6,6v63c0,3.3,2.7,6,6,6h78c3.3,0,6-2.7,6-6v-63C95,4.4,92.3,1.7,89,1.7z M91,70.7
			c0,1.1-0.9,2-2,2H11c-1.1,0-2-0.9-2-2V17.8h82V70.7z M91,13.8H9V7.7c0-1.1,0.9-2,2-2h78c1.1,0,2,0.9,2,2V13.8z"/>
		<path d="M25.4,7.9c-1.2,0-2.1,0.9-2.1,2.1s0.9,2.1,2.1,2.1s2.1-0.9,2.1-2.1S26.6,7.9,25.4,7.9z"/>
		<linearGradient id="SVGID_3_" gradientUnits="userSpaceOnUse" x1="11.7" y1="9.9702" x2="27.5" y2="9.9702">
			<stop  offset="0" style="stop-color:#7A53A1"/>
			<stop  offset="1" style="stop-color:#F06052"/>
		</linearGradient>
		<path class="st3" d="M13.8,12.1c-1.1,0-2.1-0.9-2.1-2.1s0.9-2.1,2.1-2.1s2.1,0.9,2.1,2.1S15,12.1,13.8,12.1z M19.6,12.1
			c-1.2,0-2.1-0.9-2.1-2.1s0.9-2.1,2.1-2.1s2.1,0.9,2.1,2.1S20.8,12.1,19.6,12.1z M25.4,12.1c-1.2,0-2.1-0.9-2.1-2.1
			s0.9-2.1,2.1-2.1s2.1,0.9,2.1,2.1S26.6,12.1,25.4,12.1z"/>
	</g>
</g>
<linearGradient id="SVGID_4_" gradientUnits="userSpaceOnUse" x1="236.2872" y1="67.7872" x2="402.7922" y2="67.7872">
	<stop  offset="0" style="stop-color:#7A53A1"/>
	<stop  offset="1" style="stop-color:#F06052"/>
</linearGradient>
<polyline class="st4" points="332.4,183.1 242.8,183.1 242.8,-47.5 402.8,-47.5 "/>
<linearGradient id="SVGID_5_" gradientUnits="userSpaceOnUse" x1="500.5425" y1="68.6075" x2="513.5425" y2="68.6075">
	<stop  offset="0" style="stop-color:#7A53A1"/>
	<stop  offset="1" style="stop-color:#F06052"/>
</linearGradient>
<line class="st5" x1="507" y1="170.1" x2="507" y2="-32.9"/>
<g>
	<linearGradient id="SVGID_6_" gradientUnits="userSpaceOnUse" x1="304.7157" y1="66.8592" x2="345.9896" y2="66.8592">
		<stop  offset="0" style="stop-color:#7A53A1"/>
		<stop  offset="1" style="stop-color:#F06052"/>
	</linearGradient>
	<path class="st6" d="M304.7,35.3H346v7.9h-32.1v19.6h30v7.9h-30v27.8h-9.2V35.3z"/>
	<linearGradient id="SVGID_7_" gradientUnits="userSpaceOnUse" x1="388.5258" y1="66.8592" x2="435.3094" y2="66.8592">
		<stop  offset="0" style="stop-color:#7A53A1"/>
		<stop  offset="1" style="stop-color:#F06052"/>
	</linearGradient>
	<path class="st7" d="M388.5,35.3h24.9c13.7,0,19.9,7.2,19.9,15.9c0,7.3-4.1,12.1-8.9,13.8c4.4,1.4,10.9,5.9,10.9,15
		c0,11.7-9,18.6-21.2,18.6h-25.5V35.3z M411.8,61.3c8.7,0,12.1-3.5,12.1-9.3c0-5.4-3.9-9.1-10.9-9.1h-15.2v18.4H411.8z M397.7,90.9
		h15c7.8,0,12.9-3.6,12.9-11.1c0-6.5-4.2-10.9-14.3-10.9h-13.7V90.9z"/>
</g>
</svg>
