<?xml version="1.0" encoding="utf-8"?>
<!-- Generator: Adobe Illustrator 23.0.6, SVG Export Plug-In . SVG Version: 6.00 Build 0)  -->
<svg version="1.1" id="Warstwa_1" xmlns="http://www.w3.org/2000/svg" xmlns:xlink="http://www.w3.org/1999/xlink" x="0px" y="0px"
	 viewBox="0 0 100 64.8" style="enable-background:new 0 0 100 64.8;" xml:space="preserve">
<title>Marketing</title>
<path d="M89.3,58.8H7.2v2.8c0,1.8,1.5,3.3,3.3,3.3h79.1c1.8,0,3.3-1.5,3.3-3.3v-2.8H89.3z"/>
<path d="M58,56.6c0.3,0.1,0.6,0.2,0.9,0.2h25.6c-0.6-2.7-1.9-4.6-3.8-5.5c-4.5-2.2-11.3,1.4-11.4,1.5c-0.4,0.2-1,0.1-1.3-0.3
	c-4-4.7-9.9-0.8-10.1-0.6c-0.4,0.2-0.9,0.2-1.2-0.1c-0.7-0.6-1.5-1.1-2.4-1.2c0.2,0.5,0.3,1.1,0.6,1.7C55.6,54.2,56.6,56,58,56.6z"
	/>
<path d="M19.9,49.4c4.3-2.1,9.9,0.2,11.8,1.2c3.6-3.7,8.5-2.4,11.1-0.8c1-0.8,2.2-1.2,3.4-1.2c0.4-1.5,0.6-2.9,0.7-3.9h-0.9
	c-0.3,0-0.6-0.1-0.7-0.3c-0.2-0.2-0.3-0.5-0.3-0.8l0.5-4.3h-3.3l-8.6,3.2c-0.1,0-0.2,0.1-0.3,0.1c-1.8,0-3.3-1.5-3.3-3.3
	c0-0.8,0.3-1.7,0.9-2.3l7.7-10c0-0.4-0.1-0.9-0.2-1.3s-0.1-0.9-0.1-1.3s-0.1-1.1-0.1-1.7s0-0.9,0-1.3s0-1.1,0-1.6s0-0.8,0.1-1.3
	s0.1-1,0.1-1.5s0.1-0.8,0.2-1.2s0.1-0.5,0.1-0.8H16c-2.4,0-4.4,2-4.4,4.4c0,0,0,0,0,0v37.4H15C15.7,53.1,17.3,50.6,19.9,49.4z"/>
<path d="M61.3,17c0.1,0.5,0.1,1,0.1,1.5s0.1,0.9,0.1,1.3s0,1,0,1.5s0,0.9,0,1.3s0,1.1-0.1,1.6s0,0.9-0.1,1.3s-0.1,0.8-0.1,1.2
	l7.6,9.9c1.3,1.3,1.2,3.4-0.1,4.7c-0.6,0.6-1.4,0.9-2.3,0.9l0,0c-0.1,0-0.2,0-0.3-0.1l-8.5-3.1h-3.3l0.5,4.3c0,0.3-0.1,0.6-0.3,0.8
	c-0.2,0.2-0.5,0.3-0.7,0.3H53c0.1,1,0.4,2.4,0.7,3.9c1.3,0,2.7,0.4,3.7,1.2c2.7-1.6,7.8-3,11.6,0.8c2-1,8-3.4,12.5-1.1
	c2.5,1.3,4.2,3.8,4.9,7.3h1.8V19.4c0-2.4-2-4.4-4.4-4.4H61c0,0.3,0.1,0.5,0.1,0.8S61.3,16.6,61.3,17z"/>
<path d="M50.3,0.8c-0.1-0.1-0.3-0.1-0.4-0.1c-0.1,0-0.3,0-0.4,0.1c-2.5,1.5-4.6,3.7-5.9,6.3h12.7C54.9,4.5,52.8,2.3,50.3,0.8z"/>
<path d="M66.7,40.4c0.7-0.1,1.2-0.8,1.1-1.5c0-0.3-0.2-0.5-0.4-0.7l-0.1-0.1l-6.5-8.4c-0.5,2.7-1.1,5.3-1.9,7.9L66.7,40.4z"/>
<path d="M32.3,38.3c-0.4,0.4-0.5,0.9-0.3,1.4c0.2,0.4,0.6,0.7,1,0.8l7.8-2.8c-0.8-2.6-1.4-5.3-1.9-8l-6.5,8.5
	C32.4,38.2,32.4,38.2,32.3,38.3z"/>
<polygon points="51.9,42.7 52.7,42.7 52.3,38.3 52.3,38.3 52.1,36.7 51.5,30.8 48.4,30.8 47.2,42.7 50,42.7 51.8,42.7 51.8,42.7 "/>
<path d="M45.7,37.2l0.8-7.5c0.1-0.5,0.5-0.9,1-0.9h4.9l0,0c0.5,0,0.9,0.4,1,0.9l0.8,7.5H57c2.6-8.7,3.2-16.5,1.8-23
	c-0.4-1.8-0.9-3.5-1.6-5.1H42.5c-0.7,1.6-1.2,3.3-1.6,5.1c-1.4,6.5-0.8,14.3,1.9,23L45.7,37.2z M44.5,13.7c1.4-1.4,3.3-2.2,5.3-2.2
	l0,0c4.2,0,7.6,3.4,7.6,7.5s-3.4,7.6-7.6,7.6l0,0c-4.2,0-7.5-3.4-7.6-7.5C42.3,17,43.1,15.1,44.5,13.7L44.5,13.7z"/>
<path d="M49.9,24.5L49.9,24.5c1.5,0,2.9-0.6,3.9-1.6c1-1,1.6-2.5,1.6-3.9c0-3.1-2.5-5.5-5.5-5.5l0,0c-3.1,0-5.5,2.5-5.5,5.6
	C44.4,22,46.8,24.5,49.9,24.5z"/>
<path d="M43.6,51.8c-0.3,0.3-0.9,0.4-1.3,0.1c-0.2-0.2-5.8-4-9.6,0.6c-0.3,0.4-0.8,0.5-1.3,0.2c-0.1,0-6.4-3.6-10.7-1.5
	c-1.9,0.9-3.1,2.8-3.7,5.6h24.1c0.3,0,0.6-0.1,0.9-0.2c1.4-0.6,2.4-2.4,3.1-4.3c0.2-0.6,0.4-1.1,0.6-1.6
	C44.9,50.8,44.1,51.2,43.6,51.8z"/>
<path d="M52,50c-0.4-1.7-0.8-3.5-1-5.3h-2c-0.2,1.8-0.6,3.5-1,5.3c-0.5,2.5-1.5,4.8-3,6.9h10C53.5,54.7,52.5,52.4,52,50z"/>
</svg>
