<svg xmlns="http://www.w3.org/2000/svg" data-name="Layer 2" viewBox="0 0 100 125" x="0px" y="0px"><title>Marketing</title><path d="M89.33,76H7.19v2.75a3.28,3.28,0,0,0,3.28,3.28H89.53a3.28,3.28,0,0,0,3.28-3.28V76Z"/><path d="M58,73.84a2.28,2.28,0,0,0,.86.18H84.46c-.64-2.74-1.92-4.59-3.79-5.51C76.13,66.27,69.35,69.92,69.28,70A1,1,0,0,1,68,69.73c-4-4.69-9.86-.8-10.11-.64A1,1,0,0,1,56.7,69a4.21,4.21,0,0,0-2.43-1.17c.16.54.35,1.11.57,1.67C55.57,71.41,56.61,73.27,58,73.84Z"/><path d="M19.87,66.64c4.34-2.1,9.87.22,11.84,1.19,3.61-3.72,8.46-2.37,11.09-.81a5.39,5.39,0,0,1,3.39-1.19c.36-1.53.6-2.93.74-3.93h-.87a1,1,0,0,1-.74-.33,1,1,0,0,1-.26-.78l.45-4.33H42.22l-8.63,3.15a.81.81,0,0,1-.35.06,3.29,3.29,0,0,1-2.38-5.56l7.69-10c0-.43-.11-.86-.15-1.28s-.07-.88-.1-1.32-.07-1.12-.09-1.66,0-.87,0-1.29,0-1.07,0-1.59.05-.84.08-1.26.08-1,.13-1.51.11-.81.17-1.21.06-.55.11-.81H16a4.42,4.42,0,0,0-4.42,4.42V74H15C15.7,70.36,17.33,67.86,19.87,66.64Z"/><path d="M61.32,34.25c.06.49.1,1,.14,1.48s.07.86.08,1.29,0,1,0,1.55,0,.87,0,1.32,0,1.09-.09,1.64,0,.88-.09,1.33-.09.82-.13,1.24L68.87,54a3.29,3.29,0,0,1-2.36,5.57h0a1,1,0,0,1-.34-.06l-8.52-3.11H54.38l.47,4.34a1,1,0,0,1-.25.77,1,1,0,0,1-.74.34H53c.14,1,.37,2.38.74,3.94A5.77,5.77,0,0,1,57.45,67c2.72-1.57,7.8-3,11.57.81,2-1,8-3.38,12.53-1.14C84.1,68,85.75,70.43,86.49,74h1.82V36.64a4.43,4.43,0,0,0-4.43-4.42H61c.05.26.07.53.11.8S61.27,33.84,61.32,34.25Z"/><path d="M50.26,18.06a.87.87,0,0,0-.41-.11,1,1,0,0,0-.4.1,15.59,15.59,0,0,0-5.94,6.31l12.71,0A15.48,15.48,0,0,0,50.26,18.06Z"/><path d="M66.66,57.6a1.3,1.3,0,0,0,.75-2.2l-.09-.1-6.46-8.43A67.88,67.88,0,0,1,59,54.81Z"/><path d="M32.33,55.49a1.26,1.26,0,0,0-.28,1.41,1.3,1.3,0,0,0,1,.78l7.77-2.83a66.61,66.61,0,0,1-1.9-8l-6.55,8.5A.39.39,0,0,1,32.33,55.49Z"/><polygon points="51.86 59.89 52.74 59.89 52.28 55.56 52.27 55.55 52.1 53.93 51.47 48.08 48.38 48.08 47.17 59.9 49.99 59.9 51.85 59.89 51.85 59.89 51.86 59.89"/><path d="M45.71,54.47,46.47,47a1,1,0,0,1,1-.9l4.91,0h0a1,1,0,0,1,1,.9l.8,7.48H57c2.63-8.73,3.24-16.47,1.82-23a25.35,25.35,0,0,0-1.63-5.1l-14.71,0a27,27,0,0,0-1.61,5.06c-1.4,6.54-.76,14.29,1.93,23ZM44.54,30.89a7.52,7.52,0,0,1,5.33-2.23h0a7.55,7.55,0,0,1,0,15.1h0a7.54,7.54,0,0,1-5.35-12.87Z"/><path d="M49.89,41.76h0a5.47,5.47,0,0,0,3.92-1.63,5.54,5.54,0,0,0,1.62-3.93,5.55,5.55,0,0,0-5.55-5.54h0a5.57,5.57,0,0,0-5.54,5.56,5.57,5.57,0,0,0,5.55,5.54Z"/><path d="M43.56,69a1,1,0,0,1-1.26.09c-.23-.16-5.81-4-9.59.63a1,1,0,0,1-1.27.24c-.06,0-6.4-3.59-10.7-1.51-1.86.9-3.11,2.77-3.74,5.58H41.09a2.28,2.28,0,0,0,.86-.18c1.37-.57,2.41-2.44,3.14-4.35.21-.55.4-1.1.56-1.62A4,4,0,0,0,43.56,69Z"/><path d="M52,67.19a47.29,47.29,0,0,1-1-5.3H49a45.93,45.93,0,0,1-1,5.26,18,18,0,0,1-3,6.86H55A18.15,18.15,0,0,1,52,67.19Z"/><text x="0" y="115" fill="#000000" font-size="5px" font-weight="bold" font-family="'Helvetica Neue', Helvetica, Arial-Unicode, Arial, Sans-serif">Created by Andreas Vögele</text><text x="0" y="120" fill="#000000" font-size="5px" font-weight="bold" font-family="'Helvetica Neue', Helvetica, Arial-Unicode, Arial, Sans-serif">from the Noun Project</text></svg>